<?xml version="1.0" encoding="UTF-8" standalone="no"?><!DOCTYPE svg PUBLIC "-//W3C//DTD SVG 1.1//EN" "http://www.w3.org/Graphics/SVG/1.1/DTD/svg11.dtd"><svg width="100%" height="100%" viewBox="0 0 48 48" version="1.1" xmlns="http://www.w3.org/2000/svg" xmlns:xlink="http://www.w3.org/1999/xlink" xml:space="preserve" xmlns:serif="http://www.serif.com/" style="fill-rule:evenodd;clip-rule:evenodd;stroke-linejoin:round;stroke-miterlimit:2;"><g><path d="M48,4.87l0,38.261c0,2.688 -2.182,4.87 -4.87,4.87l-38.261,0c-2.688,0 -4.87,-2.182 -4.87,-4.87l0,-38.261c0,-2.688 2.182,-4.87 4.87,-4.87l38.261,-0c2.688,0 4.87,2.182 4.87,4.87Z"/><g><path d="M27.002,26.935c9.364,1.321 14.626,9.911 14.186,11.692c-0.269,1.089 -1.006,0.838 -9.703,0.858c-1.848,0.004 -2.108,0.119 -3.012,-1.525c-2.946,-5.357 -3.543,-5.776 -2.858,-5.795c2.479,-0.068 2.597,0.141 2.706,0.333c2.181,3.851 1.848,4.48 3.164,4.472c5.562,-0.034 5.56,0.042 6.041,-0.009c0.873,-0.092 -2.055,-3.75 -5.341,-5.567c-4.428,-2.448 -14.519,-4.856 -21.793,5.11c-0.024,0.032 -0.352,0.483 0.182,0.47c4.788,-0.115 5.466,0.189 5.113,-0.432c-0.102,-0.179 -2.062,-2.691 -0.295,-3.425c1.437,-0.597 2.224,1.864 3.379,3.873c1.757,3.057 -1.895,2.491 -4.57,2.491c-5.979,0.001 -7.525,0.327 -7.408,-1.388c0.036,-0.525 2.733,-6.465 8.827,-9.425c4.157,-2.02 6.727,-1.564 6.466,-2.164c-0.605,-1.395 -4.406,-7.229 -4.259,-8.107c0.058,-0.348 4.993,-9.504 5.578,-9.76c1.449,-0.636 1.621,0.384 5.64,7.489c5.623,9.94 5.764,10.13 5.321,10.856c-0.504,0.826 -1.683,0.741 -2.13,-0.004c-1.721,-2.866 -7.288,-13.021 -7.912,-14.159c-0.309,-0.563 -0.518,-0.277 -0.824,0.283c-2.918,5.337 -3,5.401 -2.823,5.786c0.259,0.565 0.399,0.473 3.809,6.766c0.062,0.115 0.373,0.984 0.771,1.04c0.14,0.02 0.129,0.018 1.746,0.242l0,0Z" style="fill:#fff;"/></g></g></svg>