<?xml version="1.0" encoding="UTF-8" standalone="no"?><!DOCTYPE svg PUBLIC "-//W3C//DTD SVG 1.1//EN" "http://www.w3.org/Graphics/SVG/1.1/DTD/svg11.dtd"><svg width="100%" height="100%" viewBox="0 0 1080 1080" version="1.1" xmlns="http://www.w3.org/2000/svg" xmlns:xlink="http://www.w3.org/1999/xlink" xml:space="preserve" xmlns:serif="http://www.serif.com/" style="fill-rule:evenodd;clip-rule:evenodd;stroke-linejoin:round;stroke-miterlimit:2;"><path d="M1080,109.565l0,860.87c0,60.471 -49.095,109.565 -109.565,109.565l-860.87,0c-60.471,0 -109.565,-49.095 -109.565,-109.565l0,-860.87c0,-60.471 49.095,-109.565 109.565,-109.565l860.87,0c60.471,0 109.565,49.095 109.565,109.565Z" style="fill:#fff;"/><g><path d="M607.542,606.048c210.696,29.718 329.088,223.003 319.19,263.074c-6.053,24.502 -22.641,18.854 -218.323,19.309c-41.585,0.097 -47.433,2.667 -67.771,-34.317c-66.283,-120.533 -79.713,-129.959 -64.3,-130.381c55.778,-1.529 58.44,3.171 60.889,7.496c49.067,86.643 41.582,100.807 71.194,100.627c125.148,-0.761 125.101,0.937 135.916,-0.208c19.632,-2.079 -46.242,-84.385 -120.182,-125.253c-99.638,-55.071 -326.682,-109.264 -490.351,114.98c-0.533,0.73 -7.93,10.865 4.093,10.575c107.721,-2.597 122.983,4.259 115.048,-9.729c-2.29,-4.036 -46.396,-60.548 -6.636,-77.063c32.341,-13.433 50.041,41.935 76.023,87.133c39.539,68.781 -42.63,56.045 -102.822,56.056c-134.519,0.023 -169.311,7.365 -166.682,-31.226c0.804,-11.806 61.483,-145.454 198.601,-212.072c93.537,-45.444 151.352,-35.198 145.494,-48.7c-13.615,-31.379 -99.142,-162.658 -95.834,-182.409c1.31,-7.822 112.346,-213.839 125.494,-219.611c32.597,-14.309 36.464,8.631 126.899,168.495c126.519,223.652 129.682,227.924 119.724,244.254c-11.329,18.579 -37.858,16.669 -47.924,-0.092c-38.727,-64.488 -163.985,-292.974 -178.021,-318.578c-6.946,-12.671 -11.649,-6.24 -18.539,6.359c-65.662,120.085 -67.494,121.517 -63.519,130.195c5.827,12.721 8.967,10.642 85.711,152.226c1.397,2.578 8.399,22.134 17.343,23.404c3.141,0.446 2.91,0.404 39.282,5.455Z"/></g></svg>